
<svg width="0" height="0" xmlns="http://www.w3.org/2000/svg">
  <symbol id="basket-icon" viewBox="0 0 22 16">
  <path fill="currentColor" d="M15.39 11.31H11.2a.5.5 0 1 1 0-1h4.19a.5.5 0 1 1 0 1ZM18.21 11a.388.388 0 0 1-.18 0 .49.49 0 0 1-.29-.64L20.12 4a.5.5 0 0 1 .64-.29.52.52 0 0 1 .3.65l-2.38 6.33a.52.52 0 0 1-.47.31ZM8 11.19a.49.49 0 0 1-.47-.34L4.39 1.31h-3a.5.5 0 0 1-.5-.5.51.51 0 0 1 .5-.5h3.36a.51.51 0 0 1 .47.34l3.29 9.88a.49.49 0 0 1-.31.63.45.45 0 0 1-.2.03Z"/>
  <path fill="currentColor" d="M9.54 15.69a3 3 0 1 1 0-6 3 3 0 0 1 0 6Zm0-5a2 2 0 1 0 0 4 2 2 0 0 0 0-4ZM17.05 15.69a3 3 0 1 1 0-6 3 3 0 0 1 0 6Zm0-5a2 2 0 1 0 0 4 2 2 0 0 0 0-4Z"/>
</symbol>

<symbol id="search-icon" viewBox="0 0 24 24">
  <path fill="currentColor" d="M9.75 17A7.25 7.25 0 1 1 17 9.77 7.26 7.26 0 0 1 9.75 17Zm0-13.5A6.25 6.25 0 1 0 16 9.77a6.25 6.25 0 0 0-6.25-6.25V3.5Z"/>
  <path fill="currentColor" d="M21 21.52a.469.469 0 0 1-.35-.15l-6.48-6.48a.495.495 0 1 1 .7-.7l6.48 6.48a.48.48 0 0 1 0 .7.47.47 0 0 1-.35.15Z"/>
</symbol>

  <symbol id="super-team-icon" viewBox="0 0 32 38">
    <path fill="#fff" d="M16.417 19a9.167 9.167 0 1 1 9.166-9.167A9.183 9.183 0 0 1 16.417 19Zm0-16.667a7.5 7.5 0 1 0 7.5 7.5 7.517 7.517 0 0 0-7.5-7.5Z"/>
    <path fill="#fff" d="M1.417 32.333a.833.833 0 0 1-.834-.833A14.184 14.184 0 0 1 14.75 17.333h3.333a.833.833 0 1 1 0 1.667H14.75a12.5 12.5 0 0 0-12.5 12.5.833.833 0 0 1-.833.833ZM23.917 37.333a.833.833 0 0 1-.834-.833V23.167a.833.833 0 0 1 1.667 0V36.5a.834.834 0 0 1-.833.833Z"/>
    <path fill="#fff" d="M30.583 30.667H17.25a.833.833 0 0 1 0-1.667h13.333a.833.833 0 0 1 0 1.667Z"/>
  </symbol>
</svg>
