
<svg width="0" height="0" xmlns="http://www.w3.org/2000/svg">
  <symbol id="basket-icon" viewBox="0 0 22 16">
  <path fill="currentColor" d="M15.39 11.31H11.2a.5.5 0 1 1 0-1h4.19a.5.5 0 1 1 0 1ZM18.21 11a.388.388 0 0 1-.18 0 .49.49 0 0 1-.29-.64L20.12 4a.5.5 0 0 1 .64-.29.52.52 0 0 1 .3.65l-2.38 6.33a.52.52 0 0 1-.47.31ZM8 11.19a.49.49 0 0 1-.47-.34L4.39 1.31h-3a.5.5 0 0 1-.5-.5.51.51 0 0 1 .5-.5h3.36a.51.51 0 0 1 .47.34l3.29 9.88a.49.49 0 0 1-.31.63.45.45 0 0 1-.2.03Z"/>
  <path fill="currentColor" d="M9.54 15.69a3 3 0 1 1 0-6 3 3 0 0 1 0 6Zm0-5a2 2 0 1 0 0 4 2 2 0 0 0 0-4ZM17.05 15.69a3 3 0 1 1 0-6 3 3 0 0 1 0 6Zm0-5a2 2 0 1 0 0 4 2 2 0 0 0 0-4Z"/>
</symbol>

<symbol id="search-icon" viewBox="0 0 24 24">
  <path fill="currentColor" d="M9.75 17A7.25 7.25 0 1 1 17 9.77 7.26 7.26 0 0 1 9.75 17Zm0-13.5A6.25 6.25 0 1 0 16 9.77a6.25 6.25 0 0 0-6.25-6.25V3.5Z"/>
  <path fill="currentColor" d="M21 21.52a.469.469 0 0 1-.35-.15l-6.48-6.48a.495.495 0 1 1 .7-.7l6.48 6.48a.48.48 0 0 1 0 .7.47.47 0 0 1-.35.15Z"/>
</symbol>

<symbol id="super-team-icon" viewBox="0 0 32 38">
  <path fill="#fff" d="M16.417 19a9.167 9.167 0 1 1 9.166-9.167A9.183 9.183 0 0 1 16.417 19Zm0-16.667a7.5 7.5 0 1 0 7.5 7.5 7.517 7.517 0 0 0-7.5-7.5Z"/>
  <path fill="#fff" d="M1.417 32.333a.833.833 0 0 1-.834-.833A14.184 14.184 0 0 1 14.75 17.333h3.333a.833.833 0 1 1 0 1.667H14.75a12.5 12.5 0 0 0-12.5 12.5.833.833 0 0 1-.833.833ZM23.917 37.333a.833.833 0 0 1-.834-.833V23.167a.833.833 0 0 1 1.667 0V36.5a.834.834 0 0 1-.833.833Z"/>
  <path fill="#fff" d="M30.583 30.667H17.25a.833.833 0 0 1 0-1.667h13.333a.833.833 0 0 1 0 1.667Z"/>
</symbol>

<symbol id="photography-icon" viewBox="0 0 70 70">
  <path fill="#95E1D3" d="M30.158 51.188a1.487 1.487 0 1 1-.058-2.974 1.487 1.487 0 0 1 .058 2.974ZM40.862 51.188a1.458 1.458 0 1 0 0-2.917 1.458 1.458 0 0 0 0 2.916Z"/>
  <path fill="#95E1D3" d="M41.62 62.65H28.38a12.95 12.95 0 0 1 0-25.9h13.24a12.95 12.95 0 0 1 0 25.9ZM28.38 39.667a10.034 10.034 0 1 0 0 20.066h13.24a10.033 10.033 0 0 0 0-20.066H28.38Z"/>
  <path fill="#95E1D3" d="M58.333 43.925h-7.816a1.458 1.458 0 1 1 0-2.917h7.816a5.338 5.338 0 0 0 5.309-5.308 25.463 25.463 0 0 0-25.405-25.433h-6.154A25.462 25.462 0 0 0 6.65 35.7a5.338 5.338 0 0 0 5.308 5.308h7.525a1.459 1.459 0 0 1 0 2.917h-7.67A8.225 8.225 0 0 1 3.588 35.7 28.38 28.38 0 0 1 32.083 7.35h6.154a28.38 28.38 0 0 1 28.321 28.32 8.254 8.254 0 0 1-8.225 8.255Z"/>
  <path fill="#95E1D3" d="M9.246 35.962A12.6 12.6 0 0 1 4.608 35a1.458 1.458 0 0 1-.816-1.896 1.4 1.4 0 0 1 1.866-.816 10.15 10.15 0 0 0 3.588.67 9.48 9.48 0 0 0 5.337-17.266 1.459 1.459 0 0 1 1.634-2.392 12.396 12.396 0 0 1-6.942 22.662h-.03ZM64.925 35.904a18.171 18.171 0 0 1-16.8-18.054c-.006-2.204.4-4.39 1.196-6.446a1.46 1.46 0 0 1 1.896-.816 1.4 1.4 0 0 1 .816 1.866 15.196 15.196 0 0 0 13.009 20.417 1.458 1.458 0 1 1 0 2.916l-.117.117Z"/>
</symbol>

<symbol id="web-design-icon" viewBox="0 0 70 70">
  <path fill="#95E1D3" d="M26.688 32.083H12.104a4.9 4.9 0 0 1-4.9-4.87V12.628a4.93 4.93 0 0 1 4.9-4.9h14.584a4.93 4.93 0 0 1 4.9 4.9v14.583a4.9 4.9 0 0 1-4.9 4.871ZM12.104 10.617a2.013 2.013 0 0 0-1.983 1.983v14.583a1.983 1.983 0 0 0 1.983 1.984h14.584a1.984 1.984 0 0 0 1.983-1.984V12.6a2.013 2.013 0 0 0-1.983-1.983H12.104ZM57.896 32.083H43.313a4.9 4.9 0 0 1-4.9-4.9V12.6a4.93 4.93 0 0 1 4.9-4.9h14.583a4.93 4.93 0 0 1 4.9 4.9v14.583a4.9 4.9 0 0 1-4.9 4.9ZM43.313 10.617a2.012 2.012 0 0 0-1.984 1.983v14.583a1.983 1.983 0 0 0 1.984 1.984h14.583a1.984 1.984 0 0 0 1.983-1.984V12.6a2.013 2.013 0 0 0-1.983-1.983H43.313ZM26.688 62.27H12.104a4.93 4.93 0 0 1-4.9-4.9V42.789a4.9 4.9 0 0 1 4.9-4.871h14.584a4.9 4.9 0 0 1 4.9 4.9V57.4a4.93 4.93 0 0 1-4.9 4.87ZM12.104 40.834a1.983 1.983 0 0 0-1.983 1.984V57.4a2.012 2.012 0 0 0 1.983 1.983h14.584A2.013 2.013 0 0 0 28.67 57.4V42.817a1.983 1.983 0 0 0-1.983-1.984H12.104ZM57.896 62.27H43.313a4.93 4.93 0 0 1-4.9-4.9V42.789a4.9 4.9 0 0 1 4.9-4.871h14.583a4.9 4.9 0 0 1 4.9 4.9V57.4a4.929 4.929 0 0 1-4.9 4.87ZM43.313 40.805a1.983 1.983 0 0 0-1.984 1.983v14.584a2.013 2.013 0 0 0 1.984 1.983h14.583a2.012 2.012 0 0 0 1.983-1.983V42.787a1.983 1.983 0 0 0-1.983-1.983H43.313Z"/>
</symbol>

<symbol id="creativity-icon" viewBox="0 0 70 70">
  <path fill="#95E1D3" d="M35 53.112a1.458 1.458 0 0 1-1.02-.437L17.353 36.05a1.46 1.46 0 0 1 0-2.07L41.825 9.187a1.196 1.196 0 0 1 1.02-.438h16.772a1.487 1.487 0 0 1 1.458 1.458l.175 16.596a1.4 1.4 0 0 1-.438 1.05L36.022 52.675a1.487 1.487 0 0 1-1.021.438ZM20.417 35 35 49.583 58.333 26.25l-.175-14.583H43.575L20.417 35Z"/>
  <path fill="#95E1D3" d="M43.138 61.25a1.516 1.516 0 0 1-1.021-.408l-32.93-32.93a1.459 1.459 0 0 1 0-2.07 1.4 1.4 0 0 1 2.042 0L44.188 58.77a1.488 1.488 0 0 1 0 2.07c-.288.262-.662.407-1.05.409Z"/>
  <path fill="#95E1D3" d="M20.417 61.075c-.395 0-.772-.158-1.05-.438L9.246 50.663a1.488 1.488 0 0 1-.496-1.08c0-.787 0-.904 11.667-12.366a1.457 1.457 0 0 1 2.49 1.035c0 .387-.15.758-.42 1.035-3.15 3.267-8.195 8.255-10.179 10.296l8.109 7.963L30.712 47.22a1.464 1.464 0 1 1 2.071 2.07L21.292 60.639a1.458 1.458 0 0 1-.875.437ZM35 36.458a1.37 1.37 0 0 1-1.02-.437 1.4 1.4 0 0 1 0-2.042l11.666-11.666a1.444 1.444 0 1 1 2.041 2.041L36.022 36.021a1.372 1.372 0 0 1-1.021.437Z"/>
</symbol>

<symbol id="seo-icon" viewBox="0 0 70 70">
  <path fill="#95E1D3" d="M11.667 59.792a1.516 1.516 0 0 1-.846-.263 1.43 1.43 0 0 1-.73-1.196V17.5a1.458 1.458 0 0 1 .934-1.37l14.904-5.834c.34-.118.71-.118 1.05 0l14.146 5.542 16.888-5.542a1.342 1.342 0 0 1 1.312.204 1.4 1.4 0 0 1 .583 1.167V52.5a1.429 1.429 0 0 1-.991 1.37l-17.5 5.834c-.32.116-.672.116-.992 0l-14-5.512-14.35 5.512a1.662 1.662 0 0 1-.408.088Zm14.875-8.75c.182-.044.372-.044.554 0l13.737 5.745 16.13-5.454V13.68l-15.459 5.075c-.32.116-.671.116-.991 0l-14.088-5.512-13.417 5.133v37.917l12.921-4.93a.962.962 0 0 1 .496-.204l.117-.116Z"/>
  <path fill="#95E1D3" d="M26.425 54.075a1.459 1.459 0 0 1-1.458-1.458v-40.95a1.458 1.458 0 1 1 2.916 0V52.5a1.458 1.458 0 0 1-1.458 1.575ZM41.096 59.792a1.458 1.458 0 0 1-1.458-1.459V17.5a1.458 1.458 0 1 1 2.916 0v40.833a1.458 1.458 0 0 1-1.458 1.459Z"/>
</symbol>

<symbol id="css-html-icon" viewBox="0 0 70 70">
  <path fill="#95E1D3" d="M51.042 61.25H18.958A10.208 10.208 0 0 1 8.75 51.042V18.958A10.208 10.208 0 0 1 18.958 8.75h32.084A10.208 10.208 0 0 1 61.25 18.958v32.084A10.209 10.209 0 0 1 51.042 61.25ZM18.958 11.667a7.292 7.292 0 0 0-7.291 7.291v32.084a7.292 7.292 0 0 0 7.291 7.291h32.084a7.292 7.292 0 0 0 7.291-7.291V18.958a7.292 7.292 0 0 0-7.291-7.291H18.958Z"/>
  <path fill="#95E1D3" d="M10.208 49.03a1.401 1.401 0 0 1-1.108-.526 1.43 1.43 0 0 1 .175-2.041L22.983 35a10.208 10.208 0 0 1 14.35 1.313L40.6 40.22a7.262 7.262 0 0 0 10.383.817l7.846-6.855a1.487 1.487 0 0 1 2.071.146 1.43 1.43 0 0 1-.146 2.042l-7.846 6.854a10.18 10.18 0 0 1-14.583-1.138L35 38.267a7.262 7.262 0 0 0-10.238-.934L11.054 48.708a1.575 1.575 0 0 1-.846.321Z"/>
</symbol>

<symbol id="digital-icon" viewBox="0 0 70 70">
  <path fill="#95E1D3" d="M35 62.708A27.708 27.708 0 1 1 62.708 35 27.738 27.738 0 0 1 35 62.708Zm0-52.5A24.791 24.791 0 1 0 59.792 35 24.82 24.82 0 0 0 35 10.208Z"/>
  <path fill="#95E1D3" d="M35 50.196A15.196 15.196 0 1 1 50.196 35 15.225 15.225 0 0 1 35 50.196Zm0-27.475A12.28 12.28 0 1 0 47.28 35 12.308 12.308 0 0 0 35 22.72Z"/>
  <path fill="#95E1D3" d="M61.25 36.458H8.75a1.458 1.458 0 1 1 0-2.916h52.5a1.458 1.458 0 1 1 0 2.916Z"/>
  <path fill="#95E1D3" d="M35 62.708a1.458 1.458 0 0 1-1.458-1.458V8.75a1.458 1.458 0 1 1 2.916 0v52.5A1.458 1.458 0 0 1 35 62.708Z"/>
</symbol>

<symbol id="what-we-do-icon-first" viewBox="0 0 42 42">
  <path fill="#95E1D3" d="M21 39.042A18.042 18.042 0 1 1 39.042 21 18.06 18.06 0 0 1 21 39.042Zm0-34.334A16.293 16.293 0 1 0 37.292 21 16.327 16.327 0 0 0 21 4.708Z"/>
  <path fill="#95E1D3" d="M14.193 28a4.813 4.813 0 1 1 0-9.625 4.813 4.813 0 0 1 0 9.625Zm0-7.875a3.063 3.063 0 1 0 3.062 2.975 3.08 3.08 0 0 0-3.062-3.063v.088ZM27.808 28a4.813 4.813 0 1 1 0-9.625 4.813 4.813 0 0 1 0 9.625Zm0-7.875a3.062 3.062 0 1 0 3.062 3.063 3.064 3.064 0 0 0-3.063-3.15v.087ZM4.235 18.13a.875.875 0 0 1-.857-.7.892.892 0 0 1 .682-1.032c.193-.035 19.128-4.148 24.22-11.148a.875.875 0 0 1 1.225-.193.893.893 0 0 1 .193 1.225c-5.495 7.543-24.448 11.655-25.27 11.83l-.193.018Z"/>
  <path fill="#95E1D3" d="M33.25 15.225a35.264 35.264 0 0 1-12.6-2.782.878.878 0 0 1 .7-1.61c.087 0 8.295 3.657 15.19 2.362a.892.892 0 0 1 1.032.7.875.875 0 0 1-.7 1.015 18.816 18.816 0 0 1-3.622.315ZM23.87 23.975h-5.74a.875.875 0 0 1-.875-.875.893.893 0 0 1 .875-.875h5.74a.893.893 0 0 1 .875.875.875.875 0 0 1-.875.875ZM10.255 23.975H3.973a.875.875 0 0 1-.875-.875.892.892 0 0 1 .875-.875h6.282a.875.875 0 1 1 0 1.75ZM38.045 23.975h-6.3a.875.875 0 1 1 0-1.75h6.3a.875.875 0 1 1 0 1.75Z"/>
</symbol>

<symbol id="what-we-do-icon-second" viewBox="0 0 42 42">
  <path fill="#95E1D3" d="M21 26.372A5.372 5.372 0 1 1 26.373 21 5.39 5.39 0 0 1 21 26.372Zm0-8.995a3.623 3.623 0 1 0 0 7.246 3.623 3.623 0 0 0 0-7.246Z"/>
  <path fill="#95E1D3" d="M21 32.375a11.375 11.375 0 1 1 0-22.75 11.375 11.375 0 0 1 0 22.75Zm0-21A9.625 9.625 0 1 0 30.625 21 9.642 9.642 0 0 0 21 11.375Z"/>
  <path fill="#95E1D3" d="M21 38.377A17.378 17.378 0 1 1 38.378 21 17.395 17.395 0 0 1 21 38.377Zm0-33.005a15.627 15.627 0 1 0 0 31.255 15.627 15.627 0 0 0 0-31.255Z"/>
</symbol>

<symbol id="what-we-do-icon-three" viewBox="0 0 42 42">
  <path fill="#95E1D3" d="M21 39.218a4.341 4.341 0 0 1-3.325-1.54l-1.54-1.75A2.641 2.641 0 0 0 14 35l-2.345.21a4.375 4.375 0 0 1-4.725-4.707L7 28.105a2.608 2.608 0 0 0-.928-2.205l-1.75-1.522a4.358 4.358 0 0 1 0-6.668l1.75-1.54A2.643 2.643 0 0 0 7 14l-.175-2.398a4.375 4.375 0 0 1 4.707-4.725L13.895 7a2.608 2.608 0 0 0 2.205-.858l1.522-1.75a4.358 4.358 0 0 1 5.21-1.208 4.339 4.339 0 0 1 1.493 1.138l1.54 1.75A2.678 2.678 0 0 0 28 7l2.345-.21a4.375 4.375 0 0 1 4.725 4.708L35 13.895a2.61 2.61 0 0 0 .927 2.205l1.75 1.522a4.356 4.356 0 0 1 0 6.668l-1.75 1.54A2.644 2.644 0 0 0 35 28l.21 2.363a4.374 4.374 0 0 1-4.708 4.724L28.105 35a2.623 2.623 0 0 0-2.205.928l-1.523 1.75a4.357 4.357 0 0 1-3.325 1.557L21 39.218Zm-6.825-5.968a4.339 4.339 0 0 1 3.325 1.54l1.54 1.75a2.573 2.573 0 0 0 1.995.928 2.693 2.693 0 0 0 2.012-.928l1.523-1.75a4.27 4.27 0 0 1 3.675-1.54l2.362.175a2.573 2.573 0 0 0 2.065-.752 2.642 2.642 0 0 0 .753-2.083l-.175-2.398a4.324 4.324 0 0 1 1.505-3.692l1.75-1.54a2.573 2.573 0 0 0 .962-1.96 2.695 2.695 0 0 0-.927-2.012l-1.75-1.523a4.287 4.287 0 0 1-1.54-3.71l.175-2.363a2.59 2.59 0 0 0-1.71-2.671c-.36-.13-.744-.18-1.125-.146l-2.398.175A4.27 4.27 0 0 1 24.5 7.245l-1.54-1.75A2.572 2.572 0 0 0 21 4.532a2.694 2.694 0 0 0-2.013.928l-1.522 1.75a4.305 4.305 0 0 1-3.71 1.54l-2.363-.175a2.59 2.59 0 0 0-2.065.752 2.642 2.642 0 0 0-.752 2.136l.175 2.345A4.322 4.322 0 0 1 7.245 17.5l-1.75 1.54A2.573 2.573 0 0 0 4.532 21a2.695 2.695 0 0 0 .928 2.012l1.75 1.523a4.287 4.287 0 0 1 1.54 3.71l-.175 2.363a2.59 2.59 0 0 0 1.71 2.671c.36.13.744.18 1.125.146l2.397-.175h.368Z"/>
  <path fill="#95E1D3" d="M21 27.125a6.125 6.125 0 1 1 0-12.25 6.125 6.125 0 0 1 0 12.25Zm0-10.5a4.375 4.375 0 1 0 0 8.75 4.375 4.375 0 0 0 0-8.75Z"/>
</symbol>
</svg>
